<svg xmlns="http://www.w3.org/2000/svg" xmlns:xlink="http://www.w3.org/1999/xlink" version="1.1" id="Layer_1" x="0px" y="0px" width="100" height="100" viewBox="0 0 500 500" enable-background="new 0 0 500 500" xml:space="preserve">
<g transform="translate(-20,0)">
    <path fill="#010101" opacity="1.000000" stroke="none" d="M344.000000,517.000000 C229.358810,517.000000 115.217621,517.000000 1.038216,517.000000 C1.038216,345.063873 1.038216,173.127731 1.038216,1.095791 C202.224503,1.095791 403.449066,1.095791 604.836792,1.095791 C604.836792,172.999878 604.836792,344.999908 604.836792,517.000000 C518.127747,517.000000 431.313873,517.000000 344.000000,517.000000"/>

<path fill="#FEFEFE" opacity="1.000000" stroke="none" d=" M469.520325,361.999695   C469.520691,309.702454 469.520691,257.905243 469.520691,205.863892   C464.811218,205.863892 460.540405,205.863892 455.625458,205.863892   C455.625458,217.432358 455.625458,228.981995 455.625458,240.748138   C449.525940,240.748138 444.061981,240.748138 438.208679,240.748138   C438.208679,252.386688 438.208679,263.804413 438.208679,275.793915   C432.134735,275.793915 426.416107,275.793915 420.263000,275.793915   C420.263000,287.944061 420.263000,299.532562 420.263000,311.358826   C401.233063,311.358826 382.651611,311.358826 363.759155,311.358826   C363.759155,299.645508 363.759155,288.185242 363.759155,276.316162   C357.890137,276.316162 352.315033,276.316162 346.190887,276.316162   C346.190887,264.379272 346.190887,252.832870 346.190887,240.901855   C340.069550,240.901855 334.478088,240.901855 328.448486,240.901855   C328.448486,229.102097 328.448486,217.683197 328.448486,205.944839   C323.612427,205.944839 319.223206,205.944839 314.430328,205.944839   C314.430328,287.977142 314.430328,369.909851 314.430328,452.230103   C295.500153,452.230103 276.962311,452.230103 258.109772,452.230103   C258.109772,316.053070 258.109772,179.847214 258.109772,43.389145   C276.753052,43.389145 295.321503,43.389145 314.221191,43.389145   C314.221191,66.735725 314.221191,89.849197 314.221191,113.543564   C326.086517,113.543564 337.645355,113.543564 349.548248,113.543564   C349.548248,125.558388 349.548248,137.000656 349.548248,148.854553   C355.484619,148.854553 361.077911,148.854553 367.104767,148.854553   C367.104767,160.653687 367.104767,172.051132 367.104767,183.904633   C373.093903,183.904633 378.669189,183.904633 384.700531,183.904633   C384.700531,195.932098 384.700531,207.514053 384.700531,219.411194   C389.561066,219.411194 393.966034,219.411194 398.829529,219.411194   C398.829529,207.862762 398.829529,196.288177 398.829529,184.283905   C404.859344,184.283905 410.453278,184.283905 416.412964,184.283905   C416.412964,172.417801 416.412964,160.974319 416.412964,149.142975   C422.375916,149.142975 427.978027,149.142975 434.124573,149.142975   C434.124573,137.221863 434.124573,125.674347 434.124573,113.739258   C446.096588,113.739258 457.526123,113.739258 469.463135,113.739258   C469.463135,90.097466 469.463135,66.850662 469.463135,43.374634   C488.553589,43.374634 507.128906,43.374634 525.908936,43.374634   C525.908936,179.709106 525.908936,315.806244 525.908936,452.262787   C507.334900,452.262787 488.782135,452.262787 469.519958,452.262787   C469.519958,422.335266 469.519958,392.417480 469.520325,361.999695  z" transform="translate(-38,0)"/>
<path fill="#FEFEFE" opacity="1.000000" stroke="none" d=" M151.884872,261.999939   C151.884872,207.857620 151.884872,154.215286 151.884872,100.032349   C116.631378,100.032349 81.592194,100.032349 46.290665,100.032349   C46.290665,80.909882 46.290665,62.326004 46.290665,43.438534   C100.195961,43.438534 154.085175,43.438534 208.225586,43.438534   C208.225586,167.980148 208.225586,292.375000 208.225586,417.180237   C196.630035,417.180237 185.201370,417.180237 173.353790,417.180237   C173.353790,429.000214 173.353790,440.422974 173.353790,452.230804   C142.569489,452.230804 112.207886,452.230804 81.398865,452.230804   C81.398865,440.791626 81.398865,429.370361 81.398865,417.548615   C69.543823,417.548615 58.119358,417.548615 46.360943,417.548615   C46.360943,363.261169 46.360943,309.379364 46.360943,255.248352   C64.926613,255.248352 83.511528,255.248352 102.522896,255.248352   C102.522896,302.039490 102.522896,348.784729 102.522896,395.764038   C119.052124,395.764038 135.158295,395.764038 151.884872,395.764038   C151.884872,351.346313 151.884872,306.923157 151.884872,261.999939  z"/></g></svg>